<svg width="348" height="45" viewBox="0 0 348 45" fill="none" xmlns="http://www.w3.org/2000/svg">
<path d="M45.1368 27.0357L42.6479 24.2353C42.0746 23.5913 41.0678 24.3474 41.5293 25.0754C41.9068 25.6775 41.3894 26.4336 40.6903 26.3076L36.1739 25.4395C35.1671 25.2435 34.8455 26.7276 35.8383 26.9797L43.9622 29.0099C45.1088 29.304 45.9338 27.9318 45.1508 27.0497" fill="white"/>
<path d="M40.2423 32.7903C40.0046 31.9642 38.7741 32.2022 38.872 33.0563C38.9559 33.7564 38.1589 34.2185 37.5856 33.7984L33.8941 31.0541C33.0692 30.438 32.1323 31.6422 32.9154 32.3003L39.3474 37.6489C40.2563 38.405 41.5986 37.5369 41.277 36.3888L40.2423 32.7903V32.7903Z" fill="white"/>
<path d="M32.9992 39.0912C32.7615 39.7633 31.8526 39.8193 31.517 39.2032L29.3777 35.1287C28.9023 34.2186 27.532 34.8907 27.9654 35.8288L31.4471 43.4457C31.9365 44.5239 33.5306 44.3138 33.7263 43.1517L34.3555 39.4553C34.4954 38.6012 33.2789 38.2931 32.9992 39.1052" fill="white"/>
<path d="M16.7379 41.1632C16.0667 41.4012 15.4515 40.7151 15.7311 40.0711L17.5909 35.8565C18.0103 34.9184 16.626 34.2743 16.1646 35.1845L12.3893 42.6614C11.8579 43.7255 13.0045 44.8316 14.0392 44.2576L17.3112 42.4513C18.0663 42.0313 17.5489 40.8832 16.7379 41.1772" fill="white"/>
<path d="M9.55025 36.7805C8.85111 36.6965 8.57146 35.8144 9.11678 35.3664L12.6125 32.37C13.3955 31.6979 12.4307 30.5218 11.6197 31.1378L4.97789 36.2345C4.04105 36.9485 4.58637 38.4607 5.77491 38.3907L9.5083 38.1807C10.3612 38.1387 10.4032 36.8785 9.55025 36.7805" fill="white"/>
<path d="M4.99177 29.7097C4.39051 29.3317 4.53034 28.4216 5.21549 28.2395L9.66201 27.0634C10.6548 26.7974 10.3052 25.3132 9.29846 25.5232L1.10457 27.2174C-0.0560013 27.4554 -0.209812 29.0516 0.880843 29.4997L4.33458 30.9419C5.1316 31.2779 5.70489 30.1578 4.97779 29.6957" fill="white"/>
<path d="M2.81086 22.1908C3.38415 22.8349 4.39091 22.0788 3.92948 21.3507C3.55194 20.7486 4.06931 19.9926 4.76844 20.1186L9.28487 20.9867C10.2916 21.1827 10.6132 19.6985 9.62046 19.4465L1.49648 17.4162C0.349896 17.1362 -0.475086 18.4944 0.307948 19.3905L2.79688 22.1908H2.81086Z" fill="white"/>
<path d="M5.22992 13.6499C5.46762 14.476 6.69811 14.238 6.60023 13.3839C6.51633 12.6838 7.31335 12.2217 7.88664 12.6418L11.5781 15.3861C12.4031 16.0022 13.3399 14.798 12.5569 14.14L6.12481 8.79132C5.21593 8.03522 3.87359 8.90333 4.19519 10.0515L5.22992 13.6499V13.6499Z" fill="white"/>
<path d="M12.4594 7.33504C12.6971 6.66296 13.606 6.60696 13.9416 7.22303L16.081 11.2975C16.5564 12.2076 17.9267 11.5356 17.4932 10.5974L14.0115 2.98051C13.5221 1.90238 11.9281 2.11241 11.7323 3.27455L11.1031 6.971C10.9493 7.8251 12.1798 8.13314 12.4594 7.32104" fill="white"/>
<path d="M20.3595 4.45073C20.8629 3.94667 21.7158 4.28271 21.7438 4.9968L21.8976 9.60336C21.9256 10.6255 23.4497 10.6115 23.4777 9.60336L23.6455 1.23034C23.6734 0.0401969 22.1493 -0.449863 21.4642 0.502253L19.2968 3.55463C18.7934 4.25471 19.7583 5.06681 20.3595 4.46474" fill="white"/>
<path d="M28.7346 5.27684C29.4058 5.03881 30.021 5.72489 29.7414 6.36897L27.8817 10.5835C27.4622 11.5216 28.8465 12.1657 29.3079 11.2556L33.0832 3.77865C33.6146 2.71452 32.468 1.60839 31.4333 2.18246L28.1613 3.98868C27.4062 4.40873 27.9236 5.55687 28.7346 5.26283" fill="white"/>
<path d="M35.9076 9.65942C36.6068 9.74343 36.8724 10.6255 36.3411 11.0736L32.8454 14.07C32.0624 14.742 33.0272 15.9182 33.8382 15.3021L40.48 10.2055C41.4168 9.4914 40.8575 7.97922 39.683 8.04922L35.9496 8.25925C35.0966 8.30125 35.0547 9.56141 35.9076 9.65942" fill="white"/>
<path d="M40.4804 16.7301C41.0817 17.1081 40.9418 18.0182 40.2567 18.2003L35.8102 19.3764C34.8174 19.6424 35.167 21.1266 36.1737 20.9166L44.3676 19.2224C45.5282 18.9844 45.682 17.3882 44.5913 16.9401L41.1376 15.4979C40.3406 15.1619 39.7673 16.282 40.4944 16.7441" fill="white"/>
<path d="M31.8385 25.0755C32.8592 20.0489 29.6152 15.1203 24.5815 14.0981C19.5616 13.076 14.6397 16.3244 13.619 21.351C13.1296 23.7873 13.605 26.2656 14.9753 28.3519C16.3456 30.4241 18.443 31.8383 20.876 32.3424C21.3514 32.4404 21.8129 32.1323 21.9108 31.6563C22.0086 31.1802 21.701 30.7182 21.2256 30.6202C19.254 30.2141 17.5481 29.066 16.4435 27.3858C15.3389 25.7056 14.9473 23.6893 15.3389 21.7011C16.1778 17.6126 20.1629 14.9803 24.2459 15.8064C28.3288 16.6465 30.9716 20.6369 30.1326 24.7254C29.5174 27.7498 27.1543 30.0741 24.134 30.6482C23.6586 30.7322 23.351 31.1942 23.4349 31.6703C23.5188 32.0903 23.8823 32.3844 24.2878 32.3844C24.3437 32.3844 24.3997 32.3844 24.4556 32.3704C28.189 31.6703 31.0834 28.8139 31.8525 25.0755" fill="white"/>
<path d="M176.891 14.2019H183.178C187.018 14.2019 189.465 16.3952 189.465 19.4146C189.465 21.9497 187.587 23.9721 185.226 24.6842L190.147 32.1472H187.729L182.979 24.8836H178.826V32.1472H176.891V14.2019ZM183.093 23.1461C185.596 23.1461 187.445 21.7788 187.445 19.5C187.445 17.2213 185.511 15.9964 183.15 15.9964H178.854V23.1461H183.093Z" fill="white"/>
<path d="M191.683 25.9091C191.683 22.1776 194.243 19.0728 197.685 19.0728C200.843 19.0728 203.488 21.5794 203.488 25.8236C203.488 26.0515 203.488 26.2794 203.488 26.4503H193.561C193.703 28.729 195.467 30.6945 198.197 30.6945C200.018 30.6945 201.668 29.8969 202.92 28.5866V30.5805C201.611 31.7769 199.961 32.4605 198.169 32.4605C194.329 32.4605 191.74 29.6121 191.74 25.9091H191.683ZM201.611 24.9121C201.44 22.5194 199.79 20.7534 197.629 20.7534C195.467 20.7534 193.731 22.5194 193.532 24.9121H201.611Z" fill="white"/>
<path d="M205.48 31.2072V29.2418C206.674 30.2102 208.153 30.7799 209.746 30.7799C211.567 30.7799 212.876 30.0109 212.876 28.8715C212.876 26.2224 205.821 26.963 205.821 22.7188C205.821 20.4685 207.841 19.0728 210.429 19.0728C211.681 19.0728 213.046 19.4146 214.127 20.0412V21.9212C212.876 21.1237 211.681 20.7534 210.486 20.7534C209.007 20.7534 207.613 21.38 207.613 22.5764C207.613 25.2539 214.725 24.4564 214.725 28.7575C214.725 31.1218 212.591 32.4605 209.803 32.4605C207.926 32.4605 206.333 31.8908 205.451 31.2072H205.48Z" fill="white"/>
<path d="M217.911 19.3861H219.76V21.7788C220.784 20.2406 222.433 19.0728 224.282 19.0728C227.468 19.0728 230.341 21.9497 230.341 25.7667C230.341 29.5836 227.525 32.4605 224.339 32.4605C222.462 32.4605 220.869 31.4351 219.845 29.9254V36.7047H217.911V19.3861ZM224.083 30.6945C226.444 30.6945 228.35 28.5012 228.35 25.7382C228.35 22.9752 226.444 20.8388 224.083 20.8388C221.722 20.8388 219.76 23.0036 219.76 25.7382C219.76 28.4727 221.637 30.6945 224.083 30.6945Z" fill="white"/>
<path d="M232.56 25.7382C232.56 22.0352 235.462 19.0728 238.989 19.0728C242.516 19.0728 245.361 22.0352 245.361 25.7667C245.361 29.4981 242.488 32.4605 238.989 32.4605C235.49 32.4605 232.56 29.4696 232.56 25.7382ZM238.989 30.666C241.435 30.666 243.427 28.5012 243.427 25.7667C243.427 23.0321 241.464 20.8673 238.989 20.8673C236.514 20.8673 234.523 23.0606 234.523 25.7667C234.523 28.4727 236.486 30.666 238.989 30.666Z" fill="white"/>
<path d="M254.179 20.8103C251.989 20.8103 250.424 22.7473 250.424 25.7097V32.1472H248.49V19.3861H250.424V22.0067C251.278 20.1837 252.842 19.0728 254.805 19.0728C257.65 19.0728 259.698 21.2091 259.698 24.7127V32.1472H257.735V25.2539C257.735 22.6049 256.398 20.8103 254.236 20.8103H254.179Z" fill="white"/>
<path d="M262.599 31.2072V29.2418C263.794 30.2102 265.273 30.7799 266.866 30.7799C268.687 30.7799 269.995 30.0109 269.995 28.8715C269.995 26.2224 262.94 26.963 262.94 22.7188C262.94 20.4685 264.96 19.0728 267.549 19.0728C268.8 19.0728 270.166 19.4146 271.247 20.0412V21.9212C269.995 21.1237 268.8 20.7534 267.606 20.7534C266.126 20.7534 264.733 21.38 264.733 22.5764C264.733 25.2539 271.844 24.4564 271.844 28.7575C271.844 31.1218 269.711 32.4605 266.923 32.4605C265.045 32.4605 263.481 31.8908 262.571 31.2072H262.599Z" fill="white"/>
<path d="M274.916 14.7431H277.192V16.851H274.916V14.7431ZM275.059 19.3861H276.993V32.1472H275.059V19.3861Z" fill="white"/>
<path d="M282.853 29.783V32.1472H281.004V13.2904H282.938V21.6364C283.991 20.1267 285.64 19.0728 287.433 19.0728C290.619 19.0728 293.435 21.9782 293.435 25.7666C293.435 29.5551 290.562 32.4605 287.376 32.4605C285.555 32.4605 283.905 31.3211 282.853 29.783ZM287.177 30.6945C289.538 30.6945 291.443 28.5012 291.443 25.7666C291.443 23.0321 289.538 20.8388 287.177 20.8388C284.816 20.8388 282.853 23.0036 282.853 25.7666C282.853 28.5296 284.73 30.6945 287.177 30.6945Z" fill="white"/>
<path d="M296.564 13.2904H298.498V32.1472H296.564V13.2904Z" fill="white"/>
<path d="M301.627 25.9091C301.627 22.1776 304.187 19.0728 307.629 19.0728C310.787 19.0728 313.432 21.5794 313.432 25.8236C313.432 26.0515 313.432 26.2794 313.432 26.4503H303.505C303.647 28.729 305.41 30.6945 308.141 30.6945C309.962 30.6945 311.583 29.8969 312.863 28.5866V30.5805C311.555 31.7769 309.905 32.4605 308.113 32.4605C304.273 32.4605 301.684 29.6121 301.684 25.9091H301.627ZM311.555 24.9121C311.384 22.5194 309.734 20.7534 307.572 20.7534C305.41 20.7534 303.675 22.5194 303.476 24.9121H311.555Z" fill="white"/>
<path d="M328.11 14.2019H330.272L337.697 32.1472H335.506L333.657 27.5327H324.697L322.848 32.1472H320.686L328.11 14.2019ZM333.06 25.6527L329.191 16.2813L325.323 25.6527H333.06Z" fill="white"/>
<path d="M339.29 30.2957H342.333V16.0534H339.29V14.2019H347.283V16.0534H344.296V30.2957H347.283V32.1472H339.29V30.2957Z" fill="white"/>
<path d="M55.6906 23.1999C55.6906 18.2721 59.3601 13.9424 64.8502 13.9424C66.5569 13.9424 68.5482 14.3412 69.9705 15.1388V17.3036C68.5766 16.3921 66.7845 15.8509 64.9924 15.8509C60.4979 15.8509 57.7387 19.326 57.7387 23.1999C57.7387 27.3302 60.7255 30.549 65.0777 30.549C66.7845 30.549 68.4344 30.0362 69.942 29.1247V31.1756C68.6904 32.0302 66.5285 32.4574 64.7933 32.4574C59.5023 32.4574 55.6621 28.2132 55.6621 23.1714L55.6906 23.1999Z" fill="white"/>
<path d="M71.9332 25.9344C71.9332 22.203 74.4933 19.0981 77.9353 19.0981C81.0928 19.0981 83.7383 21.6048 83.7383 25.849C83.7383 26.0769 83.7383 26.3047 83.7383 26.4757H73.8106C73.9528 28.7544 75.7165 30.7199 78.4473 30.7199C80.2679 30.7199 81.9177 29.9223 83.1693 28.612V30.6059C81.8608 31.8023 80.211 32.4859 78.4189 32.4859C74.5786 32.4859 71.9901 29.6374 71.9901 25.9344H71.9332ZM81.8608 24.9375C81.6902 22.5448 80.0403 20.7787 77.8784 20.7787C75.7165 20.7787 73.9813 22.5448 73.7822 24.9375H81.8608Z" fill="white"/>
<path d="M92.5565 20.8357C90.3662 20.8357 88.8017 22.7727 88.8017 25.7351V32.1726H86.8673V19.4115H88.8017V22.0321C89.655 20.209 91.248 19.0981 93.1824 19.0981C96.027 19.0981 98.0751 21.2345 98.0751 24.7381V32.1726H96.1123V25.2793C96.1123 22.6302 94.7753 20.8357 92.6134 20.8357H92.5565Z" fill="white"/>
<path d="M105.784 32.4859C103.565 32.4859 102.171 31.0617 102.171 28.4696V21.1205H100.436V19.4115H102.171V15.5091H104.077V19.4115H107.548V21.1205H104.077V28.555C104.077 29.8653 104.788 30.7199 106.097 30.7199C106.552 30.7199 107.064 30.6059 107.548 30.3496V32.0301C107.064 32.2865 106.467 32.4574 105.756 32.4574L105.784 32.4859Z" fill="white"/>
<path d="M109.425 25.9344C109.425 22.203 111.985 19.0981 115.427 19.0981C118.585 19.0981 121.23 21.6048 121.23 25.849C121.23 26.0769 121.23 26.3047 121.23 26.4757H111.303C111.445 28.7544 113.209 30.7199 115.939 30.7199C117.76 30.7199 119.381 29.9223 120.661 28.612V30.6059C119.353 31.8023 117.703 32.4859 115.911 32.4859C112.071 32.4859 109.482 29.6374 109.482 25.9344H109.425ZM119.353 24.9375C119.182 22.5448 117.532 20.7787 115.399 20.7787C113.265 20.7787 111.502 22.5448 111.303 24.9375H119.381H119.353Z" fill="white"/>
<path d="M124.331 19.4115H126.208V22.5448C127.033 20.4084 128.711 19.1266 130.902 19.1266C131.044 19.1266 131.215 19.1266 131.328 19.1266V21.0636C131.101 21.0066 130.845 20.9781 130.589 20.9781C127.744 20.9781 126.293 23.7411 126.293 26.732V32.1441H124.359V19.383L124.331 19.4115Z" fill="white"/>
<path d="M144.044 13.0309C144.727 13.0309 145.352 13.1449 145.893 13.4012V15.1103C145.409 14.8824 144.897 14.74 144.414 14.74C143.134 14.74 142.451 15.5945 142.451 17.2466V19.383H145.125V21.0921H142.508V32.1441H140.573V21.0921H138.838V19.383H140.573V17.1327C140.573 14.5406 141.967 13.0024 144.072 13.0024L144.044 13.0309Z" fill="white"/>
<path d="M146.604 25.7635C146.604 22.0605 149.505 19.0981 153.033 19.0981C156.56 19.0981 159.405 22.0605 159.405 25.792C159.405 29.5235 156.532 32.4859 153.033 32.4859C149.534 32.4859 146.604 29.495 146.604 25.7635ZM153.033 30.6914C155.479 30.6914 157.47 28.5265 157.47 25.792C157.47 23.0575 155.508 20.8927 153.033 20.8927C150.558 20.8927 148.567 23.086 148.567 25.792C148.567 28.4981 150.53 30.6914 153.033 30.6914Z" fill="white"/>
<path d="M162.505 19.4115H164.383V22.5448C165.208 20.4084 166.886 19.1266 169.076 19.1266C169.219 19.1266 169.389 19.1266 169.503 19.1266V21.0636C169.276 21.0066 169.02 20.9781 168.764 20.9781C165.919 20.9781 164.468 23.7411 164.468 26.732V32.1441H162.534V19.383L162.505 19.4115Z" fill="white"/>
</svg>
